# Blender 4.3.2
# www.blender.org
o Throne
v -7.347739 -16.213749 -7.048172
v -7.347739 -16.213749 3.867280
v 7.322374 -16.213749 -7.048172
v 7.322374 -16.213749 3.867280
v -7.347739 -19.213749 -7.048172
v -7.347739 -19.213749 3.867280
v 7.322374 -19.213749 -7.048172
v 7.322374 -19.213749 3.867280
v -5.168228 -18.336966 -6.576937
v -5.168228 -18.336966 -3.576937
v -5.168228 -10.508202 -6.576937
v -5.168228 -10.508202 -3.576937
v 5.118658 -18.336964 -6.576937
v 5.118658 -18.336964 -3.576937
v 5.118658 -10.508201 -6.576937
v 5.118658 -10.508201 -3.576937
v -7.742004 -18.291561 -9.107585
v -7.742004 -18.291561 -1.468638
v -7.742004 -10.462799 -9.107585
v -7.742004 -10.462799 -1.468638
v -4.191694 -18.291561 -9.107585
v -4.191694 -18.291561 -1.468638
v -4.191694 -10.462799 -9.107585
v -4.191694 -10.462799 -1.468638
v 4.257995 -18.291561 -9.107585
v 4.257995 -18.291561 -1.468638
v 4.257995 -10.462799 -9.107585
v 4.257995 -10.462799 -1.468638
v 7.808304 -18.291561 -9.107585
v 7.808304 -18.291561 -1.468638
v 7.808305 -10.462799 -9.107585
v 7.808305 -10.462799 -1.468638
vn -0.0000 1.0000 -0.0000
vn 1.0000 -0.0000 -0.0000
vn -0.0000 -1.0000 -0.0000
vn -1.0000 -0.0000 -0.0000
vn -0.0000 -0.0000 -1.0000
vn -0.0000 -0.0000 1.0000
vt 0.625000 0.000000
vt 0.375000 0.250000
vt 0.375000 0.000000
vt 0.625000 0.250000
vt 0.375000 0.500000
vt 0.625000 0.500000
vt 0.375000 0.750000
vt 0.625000 0.750000
vt 0.375000 1.000000
vt 0.125000 0.750000
vt 0.125000 0.500000
vt 0.875000 0.500000
vt 0.625000 1.000000
vt 0.875000 0.750000
s 0
f 2/1/1 3/2/1 1/3/1
f 4/4/2 7/5/2 3/2/2
f 8/6/3 5/7/3 7/5/3
f 6/8/4 1/9/4 5/7/4
f 7/5/5 1/10/5 3/11/5
f 4/12/6 6/8/6 8/6/6
f 10/1/4 11/2/4 9/3/4
f 12/4/1 15/5/1 11/2/1
f 16/6/2 13/7/2 15/5/2
f 14/8/3 9/9/3 13/7/3
f 15/5/5 9/10/5 11/11/5
f 12/12/6 14/8/6 16/6/6
f 18/1/4 19/2/4 17/3/4
f 20/4/1 23/5/1 19/2/1
f 24/6/2 21/7/2 23/5/2
f 22/8/3 17/9/3 21/7/3
f 23/5/5 17/10/5 19/11/5
f 20/12/6 22/8/6 24/6/6
f 26/1/4 27/2/4 25/3/4
f 28/4/1 31/5/1 27/2/1
f 32/6/2 29/7/2 31/5/2
f 30/8/3 25/9/3 29/7/3
f 31/5/5 25/10/5 27/11/5
f 28/12/6 30/8/6 32/6/6
f 2/1/1 4/4/1 3/2/1
f 4/4/2 8/6/2 7/5/2
f 8/6/3 6/8/3 5/7/3
f 6/8/4 2/13/4 1/9/4
f 7/5/5 5/7/5 1/10/5
f 4/12/6 2/14/6 6/8/6
f 10/1/4 12/4/4 11/2/4
f 12/4/1 16/6/1 15/5/1
f 16/6/2 14/8/2 13/7/2
f 14/8/3 10/13/3 9/9/3
f 15/5/5 13/7/5 9/10/5
f 12/12/6 10/14/6 14/8/6
f 18/1/4 20/4/4 19/2/4
f 20/4/1 24/6/1 23/5/1
f 24/6/2 22/8/2 21/7/2
f 22/8/3 18/13/3 17/9/3
f 23/5/5 21/7/5 17/10/5
f 20/12/6 18/14/6 22/8/6
f 26/1/4 28/4/4 27/2/4
f 28/4/1 32/6/1 31/5/1
f 32/6/2 30/8/2 29/7/2
f 30/8/3 26/13/3 25/9/3
f 31/5/5 29/7/5 25/10/5
f 28/12/6 26/14/6 30/8/6
